<?xml version="1.0" standalone="no"?><!DOCTYPE svg PUBLIC "-//W3C//DTD SVG 1.1//EN" "http://www.w3.org/Graphics/SVG/1.1/DTD/svg11.dtd"><svg t="1545568347773" class="icon" style="" viewBox="0 0 1024 1024" version="1.1" xmlns="http://www.w3.org/2000/svg" p-id="5037" xmlns:xlink="http://www.w3.org/1999/xlink" width="32" height="32"><defs><style type="text/css"></style></defs><path d="M382.293333 588.714667c17.536-18.090667 22.741333-35.669333 21.973334-48.213334l-0.042667-4.053333c0.426667-4.693333-7.509333-21.589333-20.608-41.429333a460.885333 460.885333 0 0 0-22.528-31.104l-1.493333-1.877334A188.714667 188.714667 0 0 1 315.648 341.333333c0-102.741333 83.2-186.965333 189.44-192h14.250667C624.512 154.325333 707.84 238.506667 707.84 341.333333c0 43.946667-15.488 86.528-43.52 119.978667a471.594667 471.594667 0 0 0-23.722667 32.554667c-3.541333 5.376-6.826667 10.581333-9.642666 15.488-7.850667 13.482667-11.946667 24.192-11.733334 27.221333l-0.042666 4.266667c-0.768 12.288 4.394667 29.866667 21.930666 47.872 4.906667 5.077333 10.666667 9.941333 17.28 14.506666h99.285334c63.274667-0.042667 90.752 23.552 90.752 79.488v126.805334a64 64 0 0 1-63.872 64l-545.493334 1.109333a64 64 0 0 1-64.128-64V682.666667c0-55.722667 27.861333-79.445333 90.794667-79.530667h99.328c6.613333-4.565333 12.330667-9.386667 17.194667-14.421333z m30.549334 29.738666a164.266667 164.266667 0 0 1-29.952 24.021334l-5.205334 3.328H265.770667c-40.789333 0.085333-48.170667 6.357333-48.170667 36.864v127.914666a21.333333 21.333333 0 0 0 21.333333 21.333334l545.536-1.109334a21.333333 21.333333 0 0 0 21.333334-21.333333V682.666667c0-30.805333-7.082667-36.821333-48.085334-36.778667h-111.914666l-5.248-3.328a164.010667 164.010667 0 0 1-30.08-24.149333c-26.624-27.434667-35.285333-56.661333-33.877334-80.256-0.554667-14.208 5.888-30.293333 17.493334-50.261334 3.285333-5.717333 6.954667-11.605333 10.965333-17.664a513.536 513.536 0 0 1 26.368-36.053333c21.76-26.026667 33.706667-58.965333 33.706667-92.885333 0-79.658667-65.066667-145.408-146.773334-149.290667h-12.288c-82.773333 3.925333-147.754667 69.717333-147.754666 149.333333 0 33.792 11.861333 66.56 33.536 92.757334a241.664 241.664 0 0 1 8.874666 11.349333c6.314667 8.362667 12.629333 17.194667 18.474667 26.026667 18.090667 27.477333 28.373333 48.853333 27.648 66.688 1.365333 23.637333-7.296 52.821333-34.005333 80.298666z" p-id="5038"></path><path d="M384 725.333333l256 0 0 42.666667-256 0 0-42.666667Z" p-id="5039"></path></svg>